<svg xmlns="http://www.w3.org/2000/svg" xmlns:xlink="http://www.w3.org/1999/xlink" id="Layer_1" width="100%" x="0" y="0" enable-background="new 0 0 200 200" version="1.1" viewBox="0 0 200 200" xml:space="preserve"><path fill="#FFF" stroke="none" d="M201.000000,4.000000 C201.000000,69.618263 201.000000,135.236526 201.000000,200.927399 C134.430939,200.927399 67.861778,200.927399 1.000000,200.927399 C1.000000,135.646057 1.000000,70.291687 1.468657,4.468500 C68.291542,3.999790 134.645767,3.999895 201.000000,4.000000 M111.000000,139.000000 C111.000000,139.000000 110.989906,138.990387 111.454529,138.784744 C111.619545,138.498016 111.784561,138.211304 111.994568,137.993927 C111.994568,137.993927 111.923470,137.951767 112.413406,137.765854 C112.578598,137.469070 112.743782,137.172287 112.910721,136.991257 C112.910721,136.991257 112.863434,136.885590 113.600243,136.889709 C114.393166,135.586243 115.186081,134.282776 116.000305,132.999390 C116.000305,132.999390 115.976852,132.983643 116.445473,132.774719 C116.605896,132.481903 116.766319,132.189102 116.934799,132.001251 C116.934799,132.001251 116.888596,131.906631 117.599159,131.913162 C121.459442,129.634415 124.784813,126.959122 125.146568,121.514130 C125.330544,121.236259 125.581871,121.048561 126.616859,120.882072 C127.010139,120.126999 127.403419,119.371918 127.960991,118.117317 C128.323486,117.751907 128.685989,117.386497 129.843979,117.012451 C133.828842,117.292320 132.829788,114.295891 133.020782,112.032448 C133.020782,112.032448 133.107162,112.060684 133.843994,112.012077 C134.517410,110.963982 135.190842,109.915894 135.896210,108.995377 C135.896210,108.995377 135.846680,108.867706 136.590958,108.885399 C137.379883,107.563370 138.168808,106.241341 139.105408,104.479637 C139.262589,104.193359 139.496826,104.000839 140.549881,103.902153 C141.673569,102.238853 142.797241,100.575554 143.973785,99.008965 C143.973785,99.008965 143.898834,98.927711 144.614059,98.861794 C146.708923,97.152771 146.842575,95.812485 143.171844,94.963013 C142.442139,94.950035 141.712418,94.937057 140.522644,94.423233 C137.109467,93.584480 137.041779,95.795250 137.019272,98.102577 C137.019272,98.102577 137.136948,98.096275 136.624283,98.245018 C136.446091,98.540298 136.267899,98.835579 136.031235,99.032562 C136.031235,99.032562 136.130173,99.089951 135.621521,99.240402 C135.439529,99.531502 135.257523,99.822601 135.022110,100.022789 C135.022110,100.022789 135.113159,100.075966 134.612091,100.235451 C134.429688,100.523636 134.247284,100.811821 134.015640,101.015778 C134.015640,101.015778 134.099747,101.065254 133.604416,101.231461 C133.421417,101.517372 133.238434,101.803276 133.011673,102.010445 C133.011673,102.010445 133.088501,102.057487 132.599655,102.209488 C132.404800,102.479866 132.209930,102.750252 132.000000,102.999695 C132.000000,102.999695 132.020660,103.015488 131.556244,103.192001 C131.264481,103.385162 131.080795,103.652573 131.001221,104.001450 C131.001221,104.001450 130.993881,104.004967 130.540024,104.184418 C130.255753,104.375359 130.073120,104.637199 130.001968,105.001610 C130.001968,105.001610 129.972061,104.987282 129.248871,104.992180 C127.461761,104.593079 125.674660,104.193985 123.973839,102.886665 C123.995811,93.093925 123.963959,83.300690 124.054413,73.508583 C124.151009,63.050964 124.406807,52.589783 120.791763,41.932243 C120.549950,41.623886 120.308128,41.315529 119.809723,40.782528 C119.809723,40.782528 119.804420,40.441528 119.914047,39.655701 C119.227730,38.805344 118.541412,37.954987 117.984169,37.036617 C117.984169,37.036617 117.880630,37.139397 117.956963,36.366577 C116.613983,35.262207 115.271004,34.157837 113.986435,33.000839 C113.986435,33.000839 113.961792,33.075493 113.662766,32.566719 C113.303276,32.442204 112.943779,32.317688 112.055466,32.155571 C111.709335,32.141911 111.363213,32.128254 110.128716,31.819826 C109.669952,33.368999 108.816490,34.916855 108.811310,36.467541 C108.726410,61.894699 108.748528,87.322212 108.746590,112.749649 C108.746490,114.012955 108.746567,115.276260 108.746567,116.539566 C109.152237,116.770912 109.557907,117.002258 109.963577,117.233604 C110.670891,116.213768 111.378197,115.193924 112.550186,114.097984 C112.550186,114.097984 113.010765,114.000099 113.783920,114.036087 C114.535355,115.382248 115.286789,116.728409 115.811417,118.502586 C115.601578,118.767799 115.330925,118.933983 114.268799,118.993965 C109.911354,121.391045 105.465782,123.699310 103.998413,129.035049 C103.998413,129.035049 104.102554,129.065460 103.602501,129.224854 C103.418755,129.511932 103.235001,129.799011 103.011185,130.010925 C103.011185,130.010925 103.086037,130.051544 102.594727,130.222000 C102.410446,130.505676 102.226166,130.789352 102.007027,131.005127 C102.007027,131.005127 102.073212,131.043137 101.585526,131.208710 C101.398170,131.486771 101.210823,131.764832 101.002762,131.997910 C101.002762,131.997910 101.039925,132.031128 100.297745,132.019669 C99.523506,132.995590 98.749275,133.971527 97.742592,135.402206 C97.461304,135.585724 97.180016,135.769241 96.180046,135.975586 C94.497231,137.701462 92.814407,139.427338 91.020164,141.106674 C91.020164,141.106674 91.140816,141.102112 90.625763,141.243454 C90.445694,141.537613 90.265617,141.831772 90.061333,141.998032 C90.061333,141.998032 90.118233,142.115204 89.358719,142.046005 C88.062675,143.478439 86.766632,144.910858 85.379852,146.384232 C85.379852,146.384232 85.316299,146.460846 84.440445,146.158813 C83.222015,146.145691 82.003586,146.132568 80.384712,146.053741 C80.384712,146.053741 80.028572,145.859253 79.899399,145.195557 C75.113503,141.586685 70.517830,137.551514 63.423862,137.969788 C63.423862,137.969788 62.996937,137.748901 62.748959,137.380692 C62.526817,137.157700 62.258347,137.047607 62.003990,137.024826 C62.003990,137.024826 61.945995,137.064026 61.901375,136.405212 C60.917320,136.503113 59.933266,136.601028 58.542130,136.909195 C58.542130,136.909195 58.104958,137.046280 57.485489,137.388184 C55.325737,140.750580 55.320770,143.036697 60.628502,143.027008 C60.886364,143.185074 61.063526,143.407425 61.113190,144.442291 C63.085579,145.952698 65.057968,147.463104 67.001366,149.001266 C67.001366,149.001266 67.020332,148.966690 67.218742,149.441681 C67.508980,149.608505 67.799217,149.775330 68.011993,149.988205 C68.011993,149.988205 68.055397,149.909241 68.233505,150.402832 C68.525642,150.578033 68.817772,150.753250 69.004738,150.943771 C69.004738,150.943771 69.092659,150.884048 69.094124,151.604599 C70.681053,152.755936 72.267982,153.907257 74.345428,155.246933 C74.558441,155.516830 74.771454,155.786743 75.186760,156.494522 C75.386627,156.767807 75.652550,156.937820 76.000534,156.998642 C76.000534,156.998642 75.996170,157.014755 76.207764,157.467926 C76.489006,157.633316 76.770248,157.798706 77.000519,157.999176 C77.000519,157.999176 77.035233,157.947891 77.215744,158.430801 C77.502838,158.603424 77.789932,158.776047 78.006645,158.994202 C78.006645,158.994202 78.049355,158.922073 78.234886,159.411530 C78.529823,159.579697 78.824753,159.747879 79.006813,159.920883 C79.006813,159.920883 79.108307,159.871231 79.096855,160.593384 C81.056168,162.065155 83.015480,163.536911 85.002792,164.997803 C85.002792,164.997803 84.996445,165.027222 85.231285,165.492065 C85.536270,165.640244 85.841255,165.788422 86.585175,165.981415 C86.585175,165.981415 86.999481,166.133133 87.363686,166.723221 C88.856834,167.231003 90.349983,167.738785 92.095924,168.332550 C91.520447,166.250717 91.155930,164.932068 90.969589,163.118073 C91.326744,162.749237 91.683907,162.380386 92.485802,161.795380 C92.762566,161.582382 92.924225,161.302811 93.000549,160.999359 C93.000549,160.999359 92.956207,160.972229 93.435234,160.774338 C93.597984,160.479843 93.760735,160.185333 93.938408,159.998001 C93.938408,159.998001 93.880814,159.906403 94.575951,159.879898 C95.075150,158.964752 95.574348,158.049622 96.051117,157.046997 C96.051117,157.046997 96.141411,157.044922 96.548409,156.805603 C96.798782,156.589279 96.946274,156.317184 97.000000,156.000000 C97.000000,156.000000 96.989067,155.991348 97.454346,155.787262 C97.620949,155.501373 97.787552,155.215485 97.972252,155.007111 C97.972252,155.007111 97.927109,154.941177 98.617699,154.984177 C99.487061,154.898895 100.356422,154.813614 102.134964,154.639145 C100.816696,153.702408 100.228889,153.284729 99.857796,152.306488 C100.259605,151.877441 100.661407,151.448395 101.499107,150.792938 C101.770554,150.577682 101.928703,150.298264 102.001114,149.998840 C102.001114,149.998840 101.954666,149.975494 102.432732,149.774780 C102.597939,149.481018 102.763138,149.187271 102.938919,148.998138 C102.938919,148.998138 102.886131,148.907181 103.665382,148.949356 C104.448250,147.639496 105.231110,146.329651 105.999390,144.999527 C105.999390,144.999527 106.021843,145.010162 106.476051,144.797592 C106.640404,144.514328 106.804756,144.231064 106.999908,143.998260 C106.999908,143.998260 106.947510,143.970917 107.429092,143.773331 C107.592628,143.477753 107.756165,143.182175 107.929771,142.996048 C107.929771,142.996048 107.875473,142.900482 108.577553,142.878021 C109.069885,141.947708 109.562218,141.017395 110.013809,140.018402 C110.013809,140.018402 110.091606,140.036346 110.515366,139.807617 C110.780136,139.597046 110.938393,139.324585 111.000000,139.000000 M90.891945,134.887970 C90.891945,134.887970 90.792511,134.862869 91.340302,134.709244 C91.526726,134.393127 91.713142,134.077026 92.163040,133.224136 C93.070984,132.464828 93.978928,131.705521 95.636024,130.978699 C97.430466,129.043961 99.224907,127.109230 101.235985,124.620483 C101.476082,124.076469 101.716171,123.532455 102.634361,122.920166 C103.307076,122.165199 103.979790,121.410233 104.652504,120.655258 C103.748535,120.117416 102.844574,119.579575 101.655655,118.947945 C101.655655,118.947945 101.395134,119.096672 101.649185,118.178154 C101.658951,95.568008 101.662552,72.957863 101.685165,50.347736 C101.688553,46.968182 101.103134,44.538044 96.379616,47.343754 C94.254440,50.562996 92.129265,53.782238 89.601524,57.371201 C89.597687,57.712906 89.593849,58.054611 89.376053,58.924644 C89.240768,59.279652 89.105476,59.634663 88.624931,60.380066 C88.654816,60.706047 88.684708,61.032028 88.542137,62.079311 C88.327751,63.040970 88.113373,64.002632 87.546837,65.315849 C87.602562,65.900856 87.658279,66.485855 87.684288,67.998962 C87.608231,87.770683 87.535210,107.542419 87.452477,127.314110 C87.441483,129.942245 87.318764,132.573196 87.444710,135.193359 C87.456696,135.442749 88.881271,135.624222 90.231216,135.733307 C90.443474,135.418289 90.655724,135.103271 90.891945,134.887970 M82.517784,139.575272 C82.370865,138.385223 82.223938,137.195190 81.922577,135.078262 C81.922577,120.134384 81.922577,105.190506 81.922577,90.256172 C74.347366,90.156616 67.727341,94.318604 67.164383,101.312241 C66.291954,112.150414 66.979477,123.114143 67.343353,134.502609 C67.708542,134.602356 68.073730,134.702103 68.783440,134.817825 C68.783440,134.817825 69.010941,135.077042 69.378868,135.537994 C69.753082,135.615326 70.127304,135.692657 71.185440,135.907471 C74.790627,137.265884 78.395805,138.624298 82.517784,139.575272 z" opacity="1"/><path fill="#FFF" stroke="none" d="M1.000000,3.000000 C1.166667,2.333333 1.229735,1.149261 1.518317,1.091479 C2.640014,0.866886 3.833333,1.000000 5.000000,1.000000 C69.000000,1.000000 133.000000,0.993944 196.999969,1.041719 C198.333542,1.042715 199.666672,1.666665 200.531342,2.499999 C133.708450,3.000000 67.354225,3.000000 1.000000,3.000000 z" opacity="1"/><path fill="#737373" stroke="none" d="M1.000000,3.250000 C67.354225,3.000000 133.708450,3.000000 200.531342,3.000000 C201.000000,3.000000 201.000000,3.500000 201.000000,3.750000 C134.645767,3.999895 68.291542,3.999790 1.468657,3.999842 C1.000000,4.000000 1.000000,3.500000 1.000000,3.250000 z" opacity="1"/><path fill="#49A9DB" stroke="none" d="M86.999481,166.133133 C86.999481,166.133133 86.585175,165.981415 86.240288,165.733124 C85.595749,165.332291 85.296097,165.179764 84.996445,165.027222 C84.996445,165.027222 85.002792,164.997803 84.869110,164.695328 C82.859718,162.885651 80.984009,161.378433 79.108307,159.871231 C79.108307,159.871231 79.006813,159.920883 78.975403,159.670670 C78.645782,159.254333 78.347565,159.088211 78.049355,158.922073 C78.049355,158.922073 78.006645,158.994202 77.949554,158.731140 C77.606720,158.294693 77.320976,158.121292 77.035233,157.947891 C77.035233,157.947891 77.000519,157.999176 76.939560,157.740295 C76.584465,157.325851 76.290314,157.170303 75.996170,157.014755 C75.996170,157.014755 76.000534,156.998642 75.907211,156.769516 C75.616646,156.243301 75.340179,156.082062 74.984474,156.056641 C74.771454,155.786743 74.558441,155.516830 73.985107,154.850433 C72.114082,153.263977 70.603371,152.074020 69.092659,150.884048 C69.092659,150.884048 69.004738,150.943771 68.971321,150.686661 C68.643738,150.256119 68.349564,150.082672 68.055397,149.909241 C68.055397,149.909241 68.011993,149.988205 67.956619,149.724670 C67.607613,149.296341 67.313972,149.131516 67.020332,148.966690 C67.020332,148.966690 67.001366,149.001266 66.889938,148.680176 C64.905670,146.804062 63.032829,145.249069 61.159988,143.694061 C61.063526,143.407425 60.886364,143.185074 60.241463,142.636353 C59.271263,140.512573 58.688110,138.779419 58.104958,137.046280 C58.104958,137.046280 58.542130,136.909195 59.114182,136.892975 C60.439484,136.939178 61.192741,137.001602 61.945995,137.064026 C61.945995,137.064026 62.003990,137.024826 62.072685,137.249512 C62.374321,137.728455 62.659508,137.820023 62.996937,137.748901 C62.996937,137.748901 63.423862,137.969788 63.876755,138.284058 C69.562630,141.018646 74.795601,143.438950 80.028572,145.859253 C80.028572,145.859253 80.384712,146.053741 80.784546,146.350311 C82.561684,146.584869 83.938995,146.522842 85.316299,146.460846 C85.316299,146.460846 85.379852,146.384232 85.722115,146.290146 C87.415665,144.835785 88.766953,143.475494 90.118240,142.115204 C90.118233,142.115204 90.061333,141.998032 90.324066,141.981476 C90.771469,141.677307 90.956139,141.389709 91.140816,141.102112 C91.140816,141.102112 91.020164,141.106674 91.398071,141.057999 C93.483551,139.323792 95.191132,137.638275 96.898727,135.952759 C97.180016,135.769241 97.461304,135.585724 98.154343,135.078827 C99.390701,133.847321 100.215309,132.939224 101.039917,132.031128 C101.039925,132.031128 101.002762,131.997910 101.257416,131.937897 C101.699120,131.599640 101.886169,131.321396 102.073212,131.043137 C102.073212,131.043137 102.007027,131.005127 102.273331,130.958603 C102.721771,130.625229 102.903908,130.338394 103.086037,130.051544 C103.086037,130.051544 103.011185,130.010925 103.278160,129.964005 C103.730942,129.633209 103.916748,129.349335 104.102554,129.065460 C104.102554,129.065460 103.998413,129.035049 104.358826,128.953125 C108.145981,125.581184 111.572731,122.291161 114.999481,119.001129 C115.330925,118.933983 115.601578,118.767799 116.236130,118.161148 C121.097908,113.542236 125.534988,109.264755 129.972061,104.987282 C129.972061,104.987282 130.001968,105.001610 130.237823,104.914955 C130.647079,104.553856 130.820480,104.279411 130.993881,104.004967 C130.993881,104.004967 131.001221,104.001450 131.247314,103.927429 C131.669174,103.574097 131.844910,103.294792 132.020660,103.015488 C132.020660,103.015488 132.000000,102.999695 132.256775,102.941315 C132.705185,102.607780 132.896851,102.332634 133.088501,102.057487 C133.088501,102.057487 133.011673,102.010445 133.283325,101.969894 C133.736572,101.641304 133.918152,101.353279 134.099747,101.065254 C134.099747,101.065254 134.015640,101.015778 134.289520,100.975708 C134.746658,100.649078 134.929901,100.362518 135.113159,100.075966 C135.113159,100.075966 135.022110,100.022789 135.299438,99.987129 C135.761246,99.664299 135.945709,99.377121 136.130173,99.089951 C136.130173,99.089951 136.031235,99.032562 136.311356,98.999443 C136.773300,98.676308 136.955124,98.386292 137.136948,98.096275 C137.136948,98.096275 137.019272,98.102577 137.385681,98.052231 C138.828964,96.975952 139.905838,95.950012 140.982712,94.924072 C141.712418,94.937057 142.442139,94.950035 143.596497,95.393982 C143.980392,96.859207 143.939621,97.893463 143.898834,98.927711 C143.898834,98.927711 143.973785,99.008965 143.654129,99.107574 C142.159012,100.771477 140.983566,102.336769 139.808121,103.902061 C139.496826,104.000839 139.262589,104.193359 138.742981,104.848740 C137.535919,106.434456 136.691299,107.651085 135.846680,108.867706 C135.846680,108.867706 135.896210,108.995377 135.596130,109.055405 C134.566406,110.097176 133.836777,111.078926 133.107162,112.060684 C133.107162,112.060684 133.020782,112.032448 132.746155,112.197617 C131.330505,113.915550 130.189484,115.468315 129.048492,117.021080 C128.685989,117.386497 128.323486,117.751907 127.597229,118.510674 C126.789169,119.586365 126.344856,120.268700 125.900543,120.951035 C125.581871,121.048561 125.330544,121.236259 124.759239,121.881088 C121.877472,125.467575 119.383034,128.687103 116.888596,131.906631 C116.888596,131.906631 116.934799,132.001251 116.685852,132.038940 C116.283554,132.378983 116.130211,132.681320 115.976852,132.983643 C115.976852,132.983643 116.000305,132.999390 115.692368,133.118195 C114.544090,134.453201 113.703758,135.669388 112.863434,136.885590 C112.863434,136.885590 112.910721,136.991257 112.665253,137.026428 C112.254341,137.358307 112.088905,137.655029 111.923462,137.951767 C111.923470,137.951767 111.994568,137.993927 111.730499,138.050644 C111.307594,138.401703 111.148758,138.696045 110.989914,138.990387 C110.989906,138.990387 111.000000,139.000000 110.762840,139.086151 C110.235062,139.386993 110.090370,139.675003 110.091606,140.036346 C110.091606,140.036346 110.013809,140.018402 109.748398,140.173752 C108.947144,141.186234 108.411308,142.043350 107.875473,142.900482 C107.875473,142.900482 107.929771,142.996048 107.682533,143.037079 C107.272705,143.375717 107.110107,143.673309 106.947510,143.970917 C106.947510,143.970917 106.999908,143.998260 106.747192,144.067078 C106.336922,144.427307 106.179382,144.718735 106.021835,145.010162 C106.021843,145.010162 105.999390,144.999527 105.705498,145.127228 C104.569778,146.472336 103.727951,147.689758 102.886124,148.907181 C102.886131,148.907181 102.938919,148.998138 102.689545,149.038910 C102.278328,149.378281 102.116493,149.676895 101.954666,149.975494 C101.954666,149.975494 102.001114,149.998840 101.751701,150.069763 C101.355934,150.433594 101.209579,150.726471 101.063217,151.019363 C100.661407,151.448395 100.259605,151.877441 99.482338,152.686142 C98.713623,153.690933 98.320366,154.316055 97.927109,154.941177 C97.927109,154.941177 97.972252,155.007111 97.719254,155.055634 C97.307198,155.399887 97.148132,155.695618 96.989067,155.991348 C96.989067,155.991348 97.000000,156.000000 96.768661,156.089752 C96.256348,156.399796 96.124382,156.688278 96.141411,157.044922 C96.141411,157.044922 96.051117,157.046997 95.770920,157.196686 C94.954086,158.199707 94.417450,159.053055 93.880814,159.906403 C93.880814,159.906403 93.938408,159.998001 93.690674,160.041611 C93.280701,160.380890 93.118462,160.676559 92.956207,160.972229 C92.956207,160.972229 93.000549,160.999359 92.748688,161.069519 C92.344902,161.430298 92.192986,161.720917 92.041061,162.011536 C91.683907,162.380386 91.326744,162.749237 90.583153,163.500641 C89.130974,164.633179 88.065224,165.383163 86.999481,166.133133 z" opacity="1"/><path fill="#103453" stroke="none" d="M120.758911,42.536308 C124.406807,52.589783 124.151009,63.050964 124.054413,73.508583 C123.963959,83.300690 123.995811,93.093925 123.617683,103.469597 C119.844604,107.368385 116.427689,110.684242 113.010765,114.000099 C113.010765,114.000099 112.550186,114.097984 112.092926,113.802261 C111.090248,111.547279 110.079979,109.590302 110.070412,107.628441 C109.959518,84.896324 109.969139,62.163368 110.044685,39.430962 C110.052795,36.991123 110.678085,34.553333 111.017082,32.114594 C111.363213,32.128254 111.709335,32.141911 112.461517,32.431831 C113.232307,32.830559 113.597054,32.953026 113.961792,33.075493 C113.961792,33.075493 113.986435,33.000839 114.100647,33.313026 C115.436783,34.796608 116.658707,35.968002 117.880630,37.139397 C117.880630,37.139397 117.984169,37.036617 117.969513,37.397179 C118.571381,38.652340 119.187897,39.546936 119.804420,40.441528 C119.804420,40.441528 119.809723,40.782528 119.932312,41.196777 C120.289574,41.919453 120.524239,42.227882 120.758911,42.536308 z" opacity="1"/><path fill="#183A58" stroke="none" d="M87.898987,64.964287 C88.113373,64.002632 88.327751,63.040970 88.773720,61.518616 C89.125832,60.630371 89.114128,60.307621 88.970192,59.989670 C89.105476,59.634663 89.240768,59.279652 89.666367,58.474213 C89.972481,57.683018 89.988289,57.342251 90.004089,57.001480 C92.129265,53.782238 94.254440,50.562996 96.763077,47.541462 C98.095963,49.950230 99.845573,52.152618 99.869652,54.373714 C100.084068,74.149094 99.957390,93.927956 100.053940,113.705193 C100.062729,115.504486 100.927734,117.299614 101.395134,119.096672 C101.395134,119.096672 101.655655,118.947945 101.680878,119.379074 C101.789490,120.869614 101.872879,121.929024 101.956268,122.988441 C101.716171,123.532455 101.476082,124.076469 100.826218,125.013016 C98.573265,127.252441 96.730072,129.099335 94.886871,130.946213 C93.978928,131.705521 93.070984,132.464828 91.763428,133.578171 C91.173378,134.242432 90.982948,134.552658 90.792511,134.862869 C90.792511,134.862869 90.891945,134.887970 90.604942,134.917023 C90.095306,135.243134 89.872681,135.540192 89.650047,135.837219 C88.881271,135.624222 87.456696,135.442749 87.444710,135.193359 C87.318764,132.573196 87.441483,129.942245 87.452477,127.314110 C87.535210,107.542419 87.608231,87.770683 87.836716,67.199364 C87.959084,65.921272 87.929031,65.442780 87.898987,64.964287 z" opacity="1"/><path fill="#193957" stroke="none" d="M67.005600,134.024643 C66.979477,123.114143 66.291954,112.150414 67.164383,101.312241 C67.727341,94.318604 74.347366,90.156616 81.922577,90.256172 C81.922577,105.190506 81.922577,120.134384 81.904861,135.931519 C81.925087,137.850769 81.963036,138.916733 82.000977,139.982712 C78.395805,138.624298 74.790627,137.265884 70.668350,135.598999 C69.771149,135.219360 69.391045,135.148193 69.010941,135.077042 C69.010941,135.077042 68.783440,134.817825 68.454262,134.561249 C67.751923,134.211319 67.378761,134.117981 67.005600,134.024643 z" opacity="1"/><path fill="#143249" stroke="none" d="M101.522156,118.637413 C100.927734,117.299614 100.062729,115.504486 100.053940,113.705193 C99.957390,93.927956 100.084068,74.149094 99.869652,54.373714 C99.845573,52.152618 98.095963,49.950230 97.065933,47.367405 C101.103134,44.538044 101.688553,46.968182 101.685165,50.347736 C101.662552,72.957863 101.658951,95.568008 101.522156,118.637413 z" opacity="1"/><path fill="#173048" stroke="none" d="M110.572899,31.967209 C110.678085,34.553333 110.052795,36.991123 110.044685,39.430962 C109.969139,62.163368 109.959518,84.896324 110.070412,107.628441 C110.079979,109.590302 111.090248,111.547279 111.860596,113.840309 C111.378197,115.193924 110.670891,116.213768 109.963577,117.233604 C109.557907,117.002258 109.152237,116.770912 108.746567,116.539566 C108.746567,115.276260 108.746490,114.012955 108.746590,112.749649 C108.748528,87.322212 108.726410,61.894699 108.811310,36.467541 C108.816490,34.916855 109.669952,33.368999 110.572899,31.967209 z" opacity="1"/><path fill="#E2F2F5" stroke="none" d="M113.397339,114.018097 C116.427689,110.684242 119.844604,107.368385 123.574539,103.923706 C125.674660,104.193985 127.461761,104.593079 129.610474,104.989731 C125.534988,109.264755 121.097908,113.542236 116.349533,117.947144 C115.286789,116.728409 114.535355,115.382248 113.397339,114.018097 z" opacity="1"/><path fill="#E2F2F5" stroke="none" d="M79.963989,145.527405 C74.795601,143.438950 69.562630,141.018646 64.113297,138.326660 C70.517830,137.551514 75.113503,141.586685 79.963989,145.527405 z" opacity="1"/><path fill="#E2F2F5" stroke="none" d="M114.634140,118.997551 C111.572731,122.291161 108.145981,125.581184 104.403061,128.984558 C105.465782,123.699310 109.911354,121.391045 114.634140,118.997551 z" opacity="1"/><path fill="#E2F2F5" stroke="none" d="M117.243881,131.909897 C119.383034,128.687103 121.877472,125.467575 124.674469,122.104568 C124.784813,126.959122 121.459442,129.634415 117.243881,131.909897 z" opacity="1"/><path fill="#E2F2F5" stroke="none" d="M95.261452,130.962463 C96.730072,129.099335 98.573265,127.252441 100.717896,125.290024 C99.224907,127.109230 97.430466,129.043961 95.261452,130.962463 z" opacity="1"/><path fill="#E2F2F5" stroke="none" d="M96.539383,135.964172 C95.191132,137.638275 93.483551,139.323792 91.453781,141.081268 C92.814407,139.427338 94.497231,137.701462 96.539383,135.964172 z" opacity="1"/><path fill="#E2F2F5" stroke="none" d="M87.181580,166.428177 C88.065224,165.383163 89.130974,164.633179 90.494064,163.748322 C91.155930,164.932068 91.520447,166.250717 92.095924,168.332550 C90.349983,167.738785 88.856834,167.231003 87.181580,166.428177 z" opacity="1"/><path fill="#E2F2F5" stroke="none" d="M79.102585,160.232300 C80.984009,161.378433 82.859718,162.885651 84.855103,164.700775 C83.015480,163.536911 81.056168,162.065155 79.102585,160.232300 z" opacity="1"/><path fill="#E2F2F5" stroke="none" d="M61.136589,144.068176 C63.032829,145.249069 64.905670,146.804062 66.904434,148.666290 C65.057968,147.463104 63.085579,145.952698 61.136589,144.068176 z" opacity="1"/><path fill="#E2F2F5" stroke="none" d="M129.446228,117.016762 C130.189484,115.468315 131.330505,113.915550 132.768677,112.237076 C132.829788,114.295891 133.828842,117.292320 129.446228,117.016762 z" opacity="1"/><path fill="#E2F2F5" stroke="none" d="M57.795223,137.217224 C58.688110,138.779419 59.271263,140.512573 60.039291,142.558426 C55.320770,143.036697 55.325737,140.750580 57.795223,137.217224 z" opacity="1"/><path fill="#E2F2F5" stroke="none" d="M140.752686,94.673653 C139.905838,95.950012 138.828964,96.975952 137.440308,98.074341 C137.041779,95.795250 137.109467,93.584480 140.752686,94.673653 z" opacity="1"/><path fill="#E2F2F5" stroke="none" d="M69.093391,151.244324 C70.603371,152.074020 72.114082,153.263977 73.739853,154.756256 C72.267982,153.907257 70.681053,152.755936 69.093391,151.244324 z" opacity="1"/><path fill="#E2F2F5" stroke="none" d="M89.738480,142.080597 C88.766953,143.475494 87.415665,144.835785 85.767487,146.269669 C86.766632,144.910858 88.062675,143.478439 89.738480,142.080597 z" opacity="1"/><path fill="#E2F2F5" stroke="none" d="M140.179001,103.902107 C140.983566,102.336769 142.159012,100.771477 143.627701,99.059219 C142.797241,100.575554 141.673569,102.238853 140.179001,103.902107 z" opacity="1"/><path fill="#E2F2F5" stroke="none" d="M102.295319,122.954300 C101.872879,121.929024 101.789490,120.869614 101.823349,119.425964 C102.844574,119.579575 103.748535,120.117416 104.652512,120.655258 C103.979790,121.410233 103.307076,122.165199 102.295319,122.954300 z" opacity="1"/><path fill="#E2F2F5" stroke="none" d="M103.275757,148.928268 C103.727951,147.689758 104.569778,146.472336 105.712784,145.137360 C105.231110,146.329651 104.448250,147.639496 103.275757,148.928268 z" opacity="1"/><path fill="#E2F2F5" stroke="none" d="M117.918793,36.752987 C116.658707,35.968002 115.436783,34.796608 114.071442,33.339340 C115.271004,34.157837 116.613983,35.262207 117.918793,36.752987 z" opacity="1"/><path fill="#E2F2F5" stroke="none" d="M136.218811,108.876556 C136.691299,107.651085 137.535919,106.434456 138.669128,105.068573 C138.168808,106.241341 137.379883,107.563370 136.218811,108.876556 z" opacity="1"/><path fill="#E2F2F5" stroke="none" d="M144.256454,98.894753 C143.939621,97.893463 143.980392,96.859207 143.959381,95.437973 C146.842575,95.812485 146.708923,97.152771 144.256454,98.894753 z" opacity="1"/><path fill="#E2F2F5" stroke="none" d="M113.231834,136.887650 C113.703758,135.669388 114.544090,134.453201 115.681717,133.108154 C115.186081,134.282776 114.393166,135.586243 113.231834,136.887650 z" opacity="1"/><path fill="#E2F2F5" stroke="none" d="M98.272408,154.962677 C98.320366,154.316055 98.713623,153.690933 99.373978,152.966431 C100.228889,153.284729 100.816696,153.702408 102.134964,154.639145 C100.356422,154.813614 99.487061,154.898895 98.272408,154.962677 z" opacity="1"/><path fill="#E2F2F5" stroke="none" d="M84.878372,146.309814 C83.938995,146.522842 82.561684,146.584869 80.984772,146.383179 C82.003586,146.132568 83.222015,146.145691 84.878372,146.309814 z" opacity="1"/><path fill="#E2F2F5" stroke="none" d="M133.475586,112.036377 C133.836777,111.078926 134.566406,110.097176 135.580139,108.991608 C135.190842,109.915894 134.517410,110.963982 133.475586,112.036377 z" opacity="1"/><path fill="#E2F2F5" stroke="none" d="M61.923683,136.734619 C61.192741,137.001602 60.439484,136.939178 59.317719,136.787857 C59.933266,136.601028 60.917320,136.503113 61.923683,136.734619 z" opacity="1"/><path fill="#E2F2F5" stroke="none" d="M100.668831,132.025391 C100.215309,132.939224 99.390701,133.847321 98.270569,134.851440 C98.749275,133.971527 99.523506,132.995590 100.668831,132.025391 z" opacity="1"/><path fill="#E2F2F5" stroke="none" d="M108.226517,142.889252 C108.411308,142.043350 108.947144,141.186234 109.768768,140.208084 C109.562218,141.017395 109.069885,141.947708 108.226517,142.889252 z" opacity="1"/><path fill="#E2F2F5" stroke="none" d="M94.228378,159.893158 C94.417450,159.053055 94.954086,158.199707 95.782135,157.240417 C95.574348,158.049622 95.075150,158.964752 94.228378,159.893158 z" opacity="1"/><path fill="#E2F2F5" stroke="none" d="M119.859238,40.048615 C119.187897,39.546936 118.571381,38.652340 117.904984,37.431187 C118.541412,37.954987 119.227730,38.805344 119.859238,40.048615 z" opacity="1"/><path fill="#E2F2F5" stroke="none" d="M82.259384,139.778992 C81.963036,138.916733 81.925087,137.850769 81.982079,136.394958 C82.223938,137.195190 82.370865,138.385223 82.259384,139.778992 z" opacity="1"/><path fill="#E2F2F5" stroke="none" d="M126.258698,120.916550 C126.344856,120.268700 126.789169,119.586365 127.515091,118.760437 C127.403419,119.371918 127.010139,120.126999 126.258698,120.916550 z" opacity="1"/><path fill="#AFBECA" stroke="none" d="M87.722916,65.140068 C87.929031,65.442780 87.959084,65.921272 87.851562,66.735313 C87.658279,66.485855 87.602562,65.900856 87.722916,65.140068 z" opacity="1"/><path fill="#E2F2F5" stroke="none" d="M106.248947,144.903870 C106.179382,144.718735 106.336922,144.427307 106.731781,144.041840 C106.804756,144.231064 106.640404,144.514328 106.248947,144.903870 z" opacity="1"/><path fill="#E2F2F5" stroke="none" d="M92.263428,161.903458 C92.192986,161.720917 92.344902,161.430298 92.733810,161.048157 C92.924225,161.302811 92.762566,161.582382 92.263428,161.903458 z" opacity="1"/><path fill="#E2F2F5" stroke="none" d="M107.188301,143.872131 C107.110107,143.673309 107.272705,143.375717 107.677498,142.982361 C107.756165,143.182175 107.592628,143.477753 107.188301,143.872131 z" opacity="1"/><path fill="#E2F2F5" stroke="none" d="M93.195724,160.873291 C93.118462,160.676559 93.280701,160.380890 93.683212,159.988037 C93.760735,160.185333 93.597984,160.479843 93.195724,160.873291 z" opacity="1"/><path fill="#E2F2F5" stroke="none" d="M85.113861,165.259644 C85.296097,165.179764 85.595749,165.332291 86.020828,165.710709 C85.841255,165.788422 85.536270,165.640244 85.113861,165.259644 z" opacity="1"/><path fill="#E2F2F5" stroke="none" d="M101.281166,150.906158 C101.209579,150.726471 101.355934,150.433594 101.737923,150.047699 C101.928703,150.298264 101.770554,150.577682 101.281166,150.906158 z" opacity="1"/><path fill="#E2F2F5" stroke="none" d="M67.119537,149.204193 C67.313972,149.131516 67.607613,149.296341 67.995354,149.701660 C67.799217,149.775330 67.508980,149.608505 67.119537,149.204193 z" opacity="1"/><path fill="#E2F2F5" stroke="none" d="M102.193695,149.875137 C102.116493,149.676895 102.278328,149.378281 102.684250,148.986603 C102.763138,149.187271 102.597939,149.481018 102.193695,149.875137 z" opacity="1"/><path fill="#E2F2F5" stroke="none" d="M68.144455,150.156036 C68.349564,150.082672 68.643738,150.256119 69.023911,150.679001 C68.817772,150.753250 68.525642,150.578033 68.144455,150.156036 z" opacity="1"/><path fill="#E2F2F5" stroke="none" d="M96.344910,156.925262 C96.124382,156.688278 96.256348,156.399796 96.764099,156.084396 C96.946274,156.317184 96.798782,156.589279 96.344910,156.925262 z" opacity="1"/><path fill="#E2F2F5" stroke="none" d="M97.221710,155.889313 C97.148132,155.695618 97.307198,155.399887 97.710205,155.016876 C97.787552,155.215485 97.620949,155.501373 97.221710,155.889313 z" opacity="1"/><path fill="#E2F2F5" stroke="none" d="M78.142120,159.166809 C78.347565,159.088211 78.645782,159.254333 79.031845,159.668243 C78.824753,159.747879 78.529823,159.579697 78.142120,159.166809 z" opacity="1"/><path fill="#E2F2F5" stroke="none" d="M77.125488,158.189346 C77.320976,158.121292 77.606720,158.294693 77.984741,158.708374 C77.789932,158.776047 77.502838,158.603424 77.125488,158.189346 z" opacity="1"/><path fill="#E2F2F5" stroke="none" d="M76.101967,157.241333 C76.290314,157.170303 76.584465,157.325851 76.965050,157.722748 C76.770248,157.798706 76.489006,157.633316 76.101967,157.241333 z" opacity="1"/><path fill="#E2F2F5" stroke="none" d="M75.085617,156.275574 C75.340179,156.082062 75.616646,156.243301 75.899200,156.772461 C75.652550,156.937820 75.386627,156.767807 75.085617,156.275574 z" opacity="1"/><path fill="#E2F2F5" stroke="none" d="M103.852524,129.145157 C103.916748,129.349335 103.730942,129.633209 103.298195,130.001587 C103.235001,129.799011 103.418755,129.511932 103.852524,129.145157 z" opacity="1"/><path fill="#E2F2F5" stroke="none" d="M113.812279,32.821106 C113.597054,32.953026 113.232307,32.830559 112.725929,32.450630 C112.943779,32.317688 113.303276,32.442204 113.812279,32.821106 z" opacity="1"/><path fill="#E2F2F5" stroke="none" d="M120.775330,42.234276 C120.524239,42.227882 120.289574,41.919453 120.060608,41.309097 C120.308128,41.315529 120.549950,41.623886 120.775330,42.234276 z" opacity="1"/><path fill="#AFBECA" stroke="none" d="M89.802811,57.186340 C89.988289,57.342251 89.972481,57.683018 89.773346,58.210052 C89.593849,58.054611 89.597687,57.712906 89.802811,57.186340 z" opacity="1"/><path fill="#AFBECA" stroke="none" d="M88.797562,60.184868 C89.114128,60.307621 89.125832,60.630371 88.859947,61.157963 C88.684708,61.032028 88.654816,60.706047 88.797562,60.184868 z" opacity="1"/><path fill="#E2F2F5" stroke="none" d="M136.880615,98.170647 C136.955124,98.386292 136.773300,98.676308 136.340591,99.048592 C136.267899,98.835579 136.446091,98.540298 136.880615,98.170647 z" opacity="1"/><path fill="#E2F2F5" stroke="none" d="M135.875854,99.165176 C135.945709,99.377121 135.761246,99.664299 135.326141,100.032593 C135.257523,99.822601 135.439529,99.531502 135.875854,99.165176 z" opacity="1"/><path fill="#E2F2F5" stroke="none" d="M134.862625,100.155708 C134.929901,100.362518 134.746658,100.649078 134.314148,101.017822 C134.247284,100.811821 134.429688,100.523636 134.862625,100.155708 z" opacity="1"/><path fill="#E2F2F5" stroke="none" d="M133.852081,101.148361 C133.918152,101.353279 133.736572,101.641304 133.305206,102.009262 C133.238434,101.803276 133.421417,101.517372 133.852081,101.148361 z" opacity="1"/><path fill="#E2F2F5" stroke="none" d="M132.844086,102.133484 C132.896851,102.332634 132.705185,102.607780 132.264313,102.951782 C132.209930,102.750252 132.404800,102.479866 132.844086,102.133484 z" opacity="1"/><path fill="#E2F2F5" stroke="none" d="M131.788452,103.103745 C131.844910,103.294792 131.669174,103.574097 131.249329,103.923828 C131.080795,103.652573 131.264481,103.385162 131.788452,103.103745 z" opacity="1"/><path fill="#E2F2F5" stroke="none" d="M130.766953,104.094696 C130.820480,104.279411 130.647079,104.553856 130.232910,104.899117 C130.073120,104.637199 130.255753,104.375359 130.766953,104.094696 z" opacity="1"/><path fill="#E2F2F5" stroke="none" d="M90.883286,141.172791 C90.956139,141.389709 90.771469,141.677307 90.336174,142.045410 C90.265617,141.831772 90.445694,141.537613 90.883286,141.172791 z" opacity="1"/><path fill="#E2F2F5" stroke="none" d="M102.840378,130.136780 C102.903908,130.338394 102.721771,130.625229 102.290756,130.992554 C102.226166,130.789352 102.410446,130.505676 102.840378,130.136780 z" opacity="1"/><path fill="#E2F2F5" stroke="none" d="M101.829369,131.125916 C101.886169,131.321396 101.699120,131.599640 101.267769,131.960388 C101.210823,131.764832 101.398170,131.486771 101.829369,131.125916 z" opacity="1"/><path fill="#E2F2F5" stroke="none" d="M116.211166,132.879181 C116.130211,132.681320 116.283554,132.378983 116.681824,131.986465 C116.766319,132.189102 116.605896,132.481903 116.211166,132.879181 z" opacity="1"/><path fill="#E2F2F5" stroke="none" d="M67.174477,134.263626 C67.378761,134.117981 67.751923,134.211319 68.281998,134.553253 C68.073730,134.702103 67.708542,134.602356 67.174477,134.263626 z" opacity="1"/><path fill="#E2F2F5" stroke="none" d="M91.066406,134.786057 C90.982948,134.552658 91.173378,134.242432 91.631683,133.846558 C91.713142,134.077026 91.526726,134.393127 91.066406,134.786057 z" opacity="1"/><path fill="#E2F2F5" stroke="none" d="M69.194901,135.307526 C69.391045,135.148193 69.771149,135.219360 70.326385,135.530243 C70.127304,135.692657 69.753082,135.615326 69.194901,135.307526 z" opacity="1"/><path fill="#E2F2F5" stroke="none" d="M89.940628,135.785278 C89.872681,135.540192 90.095306,135.243134 90.592957,134.867172 C90.655724,135.103271 90.443474,135.418289 89.940628,135.785278 z" opacity="1"/><path fill="#E2F2F5" stroke="none" d="M62.872948,137.564789 C62.659508,137.820023 62.374321,137.728455 62.042465,137.262283 C62.258347,137.047607 62.526817,137.157700 62.872948,137.564789 z" opacity="1"/><path fill="#E2F2F5" stroke="none" d="M112.168434,137.858810 C112.088905,137.655029 112.254341,137.358307 112.664368,136.968536 C112.743782,137.172287 112.578598,137.469070 112.168434,137.858810 z" opacity="1"/><path fill="#E2F2F5" stroke="none" d="M111.222221,138.887573 C111.148758,138.696045 111.307594,138.401703 111.708008,138.015961 C111.784561,138.211304 111.619545,138.498016 111.222221,138.887573 z" opacity="1"/><path fill="#E2F2F5" stroke="none" d="M110.303482,139.921982 C110.090370,139.675003 110.235062,139.386993 110.757904,139.081268 C110.938393,139.324585 110.780136,139.597046 110.303482,139.921982 z" opacity="1"/></svg>