<svg width="125" height="31" viewBox="0 0 125 31" fill="none" xmlns="http://www.w3.org/2000/svg">
<path d="M39.75 25.3693C39.108 25.3693 38.5611 25.1946 38.1094 24.8452C37.6577 24.4929 37.3125 23.983 37.0739 23.3153C36.8352 22.6449 36.7159 21.8352 36.7159 20.8864C36.7159 19.9432 36.8352 19.1378 37.0739 18.4702C37.3153 17.7997 37.6619 17.2884 38.1136 16.9361C38.5682 16.581 39.1136 16.4034 39.75 16.4034C40.3864 16.4034 40.9304 16.581 41.3821 16.9361C41.8366 17.2884 42.1832 17.7997 42.4219 18.4702C42.6634 19.1378 42.7841 19.9432 42.7841 20.8864C42.7841 21.8352 42.6648 22.6449 42.4261 23.3153C42.1875 23.983 41.8423 24.4929 41.3906 24.8452C40.9389 25.1946 40.392 25.3693 39.75 25.3693ZM39.75 24.4318C40.3864 24.4318 40.8807 24.125 41.233 23.5114C41.5852 22.8977 41.7614 22.0227 41.7614 20.8864C41.7614 20.1307 41.6804 19.4872 41.5185 18.956C41.3594 18.4247 41.1293 18.0199 40.8281 17.7415C40.5298 17.4631 40.1705 17.3239 39.75 17.3239C39.1193 17.3239 38.6264 17.6349 38.2713 18.2571C37.9162 18.8764 37.7386 19.7528 37.7386 20.8864C37.7386 21.642 37.8182 22.2841 37.9773 22.8125C38.1364 23.3409 38.3651 23.7429 38.6634 24.0185C38.9645 24.294 39.3267 24.4318 39.75 24.4318ZM44.1989 23.4602V22.5909L48.0341 16.5227H48.6648V17.8693H48.2386L45.3409 22.4545V22.5227H50.5057V23.4602H44.1989ZM48.3068 25.25V23.196V22.7912V16.5227H49.3125V25.25H48.3068ZM54.8299 25.3693C54.3299 25.3693 53.8796 25.2699 53.479 25.071C53.0785 24.8722 52.7575 24.5994 52.516 24.2528C52.2745 23.9062 52.1424 23.5114 52.1197 23.0682H53.1424C53.1822 23.4631 53.3612 23.7898 53.6793 24.0483C54.0004 24.304 54.3839 24.4318 54.8299 24.4318C55.1879 24.4318 55.506 24.348 55.7844 24.1804C56.0657 24.0128 56.2859 23.7827 56.445 23.4901C56.6069 23.1946 56.6879 22.8608 56.6879 22.4886C56.6879 22.108 56.604 21.7685 56.4364 21.4702C56.2717 21.169 56.0444 20.9318 55.7546 20.7585C55.4648 20.5852 55.1339 20.4972 54.7617 20.4943C54.4947 20.4915 54.2205 20.5327 53.9393 20.6179C53.658 20.7003 53.4265 20.8068 53.2447 20.9375L52.256 20.8182L52.7844 16.5227H57.3185V17.4602H53.6708L53.364 20.0341H53.4151C53.5941 19.892 53.8185 19.7741 54.0884 19.6804C54.3583 19.5866 54.6396 19.5398 54.9322 19.5398C55.4663 19.5398 55.9421 19.6676 56.3597 19.9233C56.7802 20.1761 57.1097 20.5227 57.3484 20.9631C57.5898 21.4034 57.7106 21.9062 57.7106 22.4716C57.7106 23.0284 57.5856 23.5256 57.3356 23.9631C57.0884 24.3977 56.7475 24.7415 56.3129 24.9943C55.8782 25.2443 55.3839 25.3693 54.8299 25.3693ZM62.3523 25.3693C61.7898 25.3693 61.2884 25.2727 60.848 25.0795C60.4105 24.8864 60.0625 24.6179 59.804 24.2741C59.5483 23.9276 59.4091 23.5256 59.3864 23.0682H60.4602C60.483 23.3494 60.5795 23.5923 60.75 23.7969C60.9205 23.9986 61.1435 24.1548 61.419 24.2656C61.6946 24.3764 62 24.4318 62.3352 24.4318C62.7102 24.4318 63.0426 24.3665 63.3324 24.2358C63.6222 24.1051 63.8494 23.9233 64.0142 23.6903C64.179 23.4574 64.2614 23.1875 64.2614 22.8807C64.2614 22.5597 64.1818 22.277 64.0227 22.0327C63.8636 21.7855 63.6307 21.5923 63.3239 21.4531C63.017 21.3139 62.642 21.2443 62.1989 21.2443H61.5V20.3068H62.1989C62.5455 20.3068 62.8494 20.2443 63.1108 20.1193C63.375 19.9943 63.581 19.8182 63.7287 19.5909C63.8793 19.3636 63.9545 19.0966 63.9545 18.7898C63.9545 18.4943 63.8892 18.2372 63.7585 18.0185C63.6278 17.7997 63.4432 17.6293 63.2045 17.5071C62.9688 17.3849 62.6903 17.3239 62.3693 17.3239C62.0682 17.3239 61.7841 17.3793 61.517 17.4901C61.2528 17.598 61.0369 17.7557 60.8693 17.9631C60.7017 18.1676 60.6108 18.4148 60.5966 18.7045H59.5739C59.5909 18.2472 59.7287 17.8466 59.9872 17.5028C60.2457 17.1562 60.5838 16.8864 61.0014 16.6932C61.4219 16.5 61.8835 16.4034 62.3864 16.4034C62.9261 16.4034 63.3892 16.5128 63.7756 16.7315C64.1619 16.9474 64.4588 17.233 64.6662 17.5881C64.8736 17.9432 64.9773 18.3267 64.9773 18.7386C64.9773 19.2301 64.848 19.6491 64.5895 19.9957C64.3338 20.3423 63.9858 20.5824 63.5455 20.7159V20.7841C64.0966 20.875 64.527 21.1094 64.8366 21.4872C65.1463 21.8622 65.3011 22.3267 65.3011 22.8807C65.3011 23.3551 65.1719 23.7812 64.9134 24.1591C64.6577 24.5341 64.3082 24.8295 63.8651 25.0455C63.4219 25.2614 62.9176 25.3693 62.3523 25.3693ZM73.3168 25.3693C72.9588 25.3636 72.6009 25.2955 72.2429 25.1648C71.8849 25.0341 71.5582 24.8139 71.2628 24.5043C70.9673 24.1918 70.7301 23.7699 70.5511 23.2386C70.3722 22.7045 70.2827 22.0341 70.2827 21.2273C70.2827 20.4545 70.3551 19.7699 70.5 19.1733C70.6449 18.5739 70.8551 18.0696 71.1307 17.6605C71.4063 17.2486 71.7386 16.9361 72.1278 16.723C72.5199 16.5099 72.9616 16.4034 73.4531 16.4034C73.9418 16.4034 74.3764 16.5014 74.7571 16.6974C75.1406 16.8906 75.4531 17.1605 75.6946 17.5071C75.9361 17.8537 76.0923 18.2528 76.1634 18.7045H75.1236C75.027 18.3125 74.8395 17.9872 74.5611 17.7287C74.2827 17.4702 73.9134 17.3409 73.4531 17.3409C72.777 17.3409 72.2443 17.6349 71.8551 18.223C71.4688 18.8111 71.2741 19.6364 71.2713 20.6989H71.3395C71.4986 20.4574 71.6875 20.2514 71.9062 20.081C72.1278 19.9077 72.3722 19.7741 72.6392 19.6804C72.9063 19.5866 73.1889 19.5398 73.4872 19.5398C73.9872 19.5398 74.4446 19.6648 74.8594 19.9148C75.2741 20.1619 75.6065 20.5043 75.8565 20.9418C76.1065 21.3764 76.2315 21.875 76.2315 22.4375C76.2315 22.9773 76.1108 23.4716 75.8693 23.9205C75.6278 24.3665 75.2884 24.7216 74.8509 24.9858C74.4162 25.2472 73.9048 25.375 73.3168 25.3693ZM73.3168 24.4318C73.6747 24.4318 73.9957 24.3423 74.2798 24.1634C74.5668 23.9844 74.7926 23.7443 74.9574 23.4432C75.125 23.142 75.2088 22.8068 75.2088 22.4375C75.2088 22.0767 75.1278 21.7486 74.9659 21.4531C74.8068 21.1548 74.5866 20.9176 74.3054 20.7415C74.027 20.5653 73.7088 20.4773 73.3509 20.4773C73.081 20.4773 72.8295 20.5312 72.5966 20.6392C72.3636 20.7443 72.1591 20.8892 71.983 21.0739C71.8097 21.2585 71.6733 21.4702 71.5739 21.7088C71.4744 21.9446 71.4247 22.1932 71.4247 22.4545C71.4247 22.8011 71.5057 23.125 71.6676 23.4261C71.8324 23.7273 72.0568 23.9702 72.3409 24.1548C72.6278 24.3395 72.9531 24.4318 73.3168 24.4318ZM77.9073 25.25V24.483L80.788 21.3295C81.1261 20.9602 81.4045 20.6392 81.6232 20.3665C81.842 20.0909 82.0039 19.8324 82.109 19.5909C82.217 19.3466 82.271 19.0909 82.271 18.8239C82.271 18.517 82.1971 18.2514 82.0494 18.027C81.9045 17.8026 81.7056 17.6293 81.4528 17.5071C81.1999 17.3849 80.9158 17.3239 80.6005 17.3239C80.2653 17.3239 79.9727 17.3935 79.7227 17.5327C79.4755 17.669 79.2837 17.8608 79.1474 18.108C79.0138 18.3551 78.9471 18.6449 78.9471 18.9773H77.9414C77.9414 18.4659 78.0593 18.017 78.2951 17.6307C78.5309 17.2443 78.8519 16.9432 79.2582 16.7273C79.6673 16.5114 80.1261 16.4034 80.6346 16.4034C81.146 16.4034 81.5991 16.5114 81.994 16.7273C82.3888 16.9432 82.6985 17.2344 82.9229 17.6009C83.1474 17.9673 83.2596 18.375 83.2596 18.8239C83.2596 19.1449 83.2013 19.4588 83.0849 19.7656C82.9712 20.0696 82.7724 20.4091 82.4883 20.7841C82.207 21.1562 81.8164 21.6108 81.3164 22.1477L79.3562 24.2443V24.3125H83.413V25.25H77.9073ZM87.9684 25.3693C87.3832 25.3693 86.8661 25.2656 86.4173 25.0582C85.9712 24.848 85.6232 24.5597 85.3732 24.1932C85.1232 23.8239 84.9996 23.4034 85.0025 22.9318C84.9996 22.5625 85.0721 22.2216 85.2198 21.9091C85.3675 21.5937 85.5692 21.331 85.8249 21.1207C86.0835 20.9077 86.3718 20.7727 86.69 20.7159V20.6648C86.2724 20.5568 85.94 20.3224 85.6928 19.9616C85.4457 19.598 85.3235 19.1847 85.3263 18.7216C85.3235 18.2784 85.4357 17.8821 85.663 17.5327C85.8903 17.1832 86.2028 16.9077 86.6005 16.706C87.0011 16.5043 87.457 16.4034 87.9684 16.4034C88.4741 16.4034 88.9258 16.5043 89.3235 16.706C89.7212 16.9077 90.0337 17.1832 90.261 17.5327C90.4911 17.8821 90.6076 18.2784 90.6104 18.7216C90.6076 19.1847 90.4812 19.598 90.2312 19.9616C89.984 20.3224 89.6559 20.5568 89.2468 20.6648V20.7159C89.5621 20.7727 89.8462 20.9077 90.0991 21.1207C90.3519 21.331 90.5536 21.5937 90.7042 21.9091C90.8548 22.2216 90.9315 22.5625 90.9343 22.9318C90.9315 23.4034 90.8036 23.8239 90.5508 24.1932C90.3008 24.5597 89.9528 24.848 89.5067 25.0582C89.0636 25.2656 88.5508 25.3693 87.9684 25.3693ZM87.9684 24.4318C88.3633 24.4318 88.7042 24.3679 88.9911 24.2401C89.2781 24.1122 89.4996 23.9318 89.6559 23.6989C89.8121 23.4659 89.8917 23.1932 89.8945 22.8807C89.8917 22.5511 89.8065 22.2599 89.6388 22.0071C89.4712 21.7543 89.2425 21.5554 88.9528 21.4105C88.6658 21.2656 88.3377 21.1932 87.9684 21.1932C87.5962 21.1932 87.2638 21.2656 86.9712 21.4105C86.6815 21.5554 86.4528 21.7543 86.2852 22.0071C86.1204 22.2599 86.0394 22.5511 86.0423 22.8807C86.0394 23.1932 86.1147 23.4659 86.2681 23.6989C86.4244 23.9318 86.6474 24.1122 86.9371 24.2401C87.2269 24.3679 87.5707 24.4318 87.9684 24.4318ZM87.9684 20.2898C88.2809 20.2898 88.5579 20.2273 88.7994 20.1023C89.0437 19.9773 89.2354 19.8026 89.3746 19.5781C89.5138 19.3537 89.5849 19.0909 89.5877 18.7898C89.5849 18.4943 89.5153 18.2372 89.3789 18.0185C89.2425 17.7969 89.0536 17.6264 88.8121 17.5071C88.5707 17.3849 88.2894 17.3239 87.9684 17.3239C87.6417 17.3239 87.3562 17.3849 87.1119 17.5071C86.8675 17.6264 86.6786 17.7969 86.5451 18.0185C86.4116 18.2372 86.3462 18.4943 86.3491 18.7898C86.3462 19.0909 86.413 19.3537 86.5494 19.5781C86.6886 19.8026 86.8803 19.9773 87.1246 20.1023C87.369 20.2273 87.6502 20.2898 87.9684 20.2898ZM99.0107 16.5227V25.25H97.9538V17.6307H97.9027L95.772 19.0455V17.9716L97.9538 16.5227H99.0107ZM101.521 25.25V24.483L104.401 21.3295C104.739 20.9602 105.018 20.6392 105.237 20.3665C105.455 20.0909 105.617 19.8324 105.722 19.5909C105.83 19.3466 105.884 19.0909 105.884 18.8239C105.884 18.517 105.81 18.2514 105.663 18.027C105.518 17.8026 105.319 17.6293 105.066 17.5071C104.813 17.3849 104.529 17.3239 104.214 17.3239C103.879 17.3239 103.586 17.3935 103.336 17.5327C103.089 17.669 102.897 17.8608 102.761 18.108C102.627 18.3551 102.56 18.6449 102.56 18.9773H101.555C101.555 18.4659 101.673 18.017 101.908 17.6307C102.144 17.2443 102.465 16.9432 102.871 16.7273C103.281 16.5114 103.739 16.4034 104.248 16.4034C104.759 16.4034 105.212 16.5114 105.607 16.7273C106.002 16.9432 106.312 17.2344 106.536 17.6009C106.761 17.9673 106.873 18.375 106.873 18.8239C106.873 19.1449 106.815 19.4588 106.698 19.7656C106.585 20.0696 106.386 20.4091 106.102 20.7841C105.82 21.1562 105.43 21.6108 104.93 22.1477L102.969 24.2443V24.3125H107.026V25.25H101.521ZM111.513 25.3693C111.013 25.3693 110.563 25.2699 110.163 25.071C109.762 24.8722 109.441 24.5994 109.2 24.2528C108.958 23.9062 108.826 23.5114 108.803 23.0682H109.826C109.866 23.4631 110.045 23.7898 110.363 24.0483C110.684 24.304 111.067 24.4318 111.513 24.4318C111.871 24.4318 112.19 24.348 112.468 24.1804C112.749 24.0128 112.969 23.7827 113.129 23.4901C113.29 23.1946 113.371 22.8608 113.371 22.4886C113.371 22.108 113.288 21.7685 113.12 21.4702C112.955 21.169 112.728 20.9318 112.438 20.7585C112.148 20.5852 111.817 20.4972 111.445 20.4943C111.178 20.4915 110.904 20.5327 110.623 20.6179C110.342 20.7003 110.11 20.8068 109.928 20.9375L108.94 20.8182L109.468 16.5227H114.002V17.4602H110.354L110.048 20.0341H110.099C110.278 19.892 110.502 19.7741 110.772 19.6804C111.042 19.5866 111.323 19.5398 111.616 19.5398C112.15 19.5398 112.626 19.6676 113.043 19.9233C113.464 20.1761 113.793 20.5227 114.032 20.9631C114.273 21.4034 114.394 21.9062 114.394 22.4716C114.394 23.0284 114.269 23.5256 114.019 23.9631C113.772 24.3977 113.431 24.7415 112.996 24.9943C112.562 25.2443 112.067 25.3693 111.513 25.3693Z" fill="black"/>
<path d="M40.7656 5.88778C40.7277 5.55161 40.5715 5.29119 40.2969 5.10653C40.0223 4.91951 39.6766 4.82599 39.2599 4.82599C38.9616 4.82599 38.7036 4.87334 38.4858 4.96804C38.268 5.06037 38.0987 5.18821 37.978 5.35156C37.8596 5.51255 37.8004 5.69602 37.8004 5.90199C37.8004 6.07481 37.8407 6.22396 37.9212 6.34943C38.004 6.47491 38.1117 6.58026 38.2443 6.66548C38.3793 6.74834 38.5237 6.81818 38.6776 6.875C38.8314 6.92945 38.9794 6.97443 39.1214 7.00994L39.8317 7.1946C40.0637 7.25142 40.3016 7.32836 40.5455 7.42543C40.7893 7.52249 41.0154 7.65033 41.2237 7.80895C41.4321 7.96757 41.6001 8.16406 41.728 8.39844C41.8582 8.63281 41.9233 8.91335 41.9233 9.24006C41.9233 9.65199 41.8168 10.0178 41.6037 10.3374C41.393 10.657 41.0864 10.9091 40.6839 11.0938C40.2839 11.2784 39.7997 11.3707 39.2315 11.3707C38.687 11.3707 38.2159 11.2843 37.8182 11.1115C37.4205 10.9387 37.1091 10.6937 36.8842 10.3764C36.6593 10.0568 36.535 9.67803 36.5114 9.24006H37.6122C37.6335 9.50284 37.7188 9.72183 37.8679 9.89702C38.0194 10.0698 38.2124 10.1989 38.4467 10.2841C38.6835 10.367 38.9427 10.4084 39.2244 10.4084C39.5346 10.4084 39.8104 10.3598 40.0518 10.2628C40.2957 10.1634 40.4875 10.026 40.6271 9.85085C40.7668 9.6733 40.8366 9.46615 40.8366 9.2294C40.8366 9.01397 40.7751 8.83759 40.652 8.70028C40.5313 8.56297 40.3667 8.44934 40.1584 8.35938C39.9524 8.26941 39.7192 8.1901 39.4588 8.12145L38.5994 7.88707C38.017 7.72846 37.5554 7.49527 37.2145 7.1875C36.8759 6.87973 36.7067 6.47254 36.7067 5.96591C36.7067 5.54687 36.8203 5.18111 37.0476 4.86861C37.2749 4.55611 37.5826 4.31345 37.9709 4.14062C38.3591 3.96544 38.7971 3.87784 39.2848 3.87784C39.7772 3.87784 40.2116 3.96425 40.5881 4.13707C40.9669 4.3099 41.2652 4.54782 41.483 4.85085C41.7008 5.15151 41.8144 5.49716 41.8239 5.88778H40.7656ZM45.5002 11.3601C44.9628 11.3601 44.4999 11.2453 44.1117 11.0156C43.7258 10.7836 43.4275 10.4581 43.2168 10.0391C43.0085 9.61766 42.9043 9.12405 42.9043 8.55824C42.9043 7.99953 43.0085 7.5071 43.2168 7.08097C43.4275 6.65483 43.7211 6.32221 44.0975 6.0831C44.4763 5.84399 44.919 5.72443 45.4256 5.72443C45.7334 5.72443 46.0317 5.77533 46.3205 5.87713C46.6093 5.97893 46.8685 6.13873 47.0982 6.35653C47.3278 6.57434 47.5089 6.85724 47.6415 7.20526C47.7741 7.5509 47.8404 7.97112 47.8404 8.46591V8.84233H43.5044V8.04688H46.7999C46.7999 7.76752 46.7431 7.52012 46.6294 7.30469C46.5158 7.08688 46.356 6.91525 46.15 6.78977C45.9464 6.6643 45.7073 6.60156 45.4327 6.60156C45.1344 6.60156 44.874 6.67495 44.6515 6.82173C44.4313 6.96615 44.2608 7.15554 44.1401 7.38991C44.0217 7.62192 43.9625 7.87405 43.9625 8.14631V8.76776C43.9625 9.13234 44.0265 9.44247 44.1543 9.69815C44.2845 9.95384 44.4656 10.1491 44.6976 10.2841C44.9296 10.4167 45.2007 10.483 45.5108 10.483C45.7121 10.483 45.8955 10.4545 46.0613 10.3977C46.227 10.3385 46.3702 10.2509 46.4909 10.1349C46.6117 10.0189 46.704 9.87571 46.7679 9.70526L47.7729 9.88636C47.6924 10.1823 47.548 10.4415 47.3397 10.6641C47.1337 10.8842 46.8745 11.0559 46.562 11.179C46.2518 11.2997 45.8979 11.3601 45.5002 11.3601ZM49.0185 11.25V5.79545H50.0447V6.66193H50.1016C50.201 6.36837 50.3762 6.13755 50.6271 5.96946C50.8804 5.79901 51.1669 5.71378 51.4865 5.71378C51.5528 5.71378 51.6309 5.71615 51.7209 5.72088C51.8132 5.72562 51.8854 5.73153 51.9375 5.73864V6.75426C51.8949 6.74242 51.8191 6.7294 51.7102 6.7152C51.6013 6.69863 51.4924 6.69034 51.3835 6.69034C51.1326 6.69034 50.9089 6.74361 50.7124 6.85014C50.5182 6.95431 50.3643 7.09991 50.2507 7.28693C50.1371 7.47159 50.0803 7.68229 50.0803 7.91903V11.25H49.0185ZM57.6886 5.79545L55.7106 11.25H54.5742L52.5927 5.79545H53.7326L55.114 9.9929H55.1708L56.5487 5.79545H57.6886ZM58.6864 11.25V5.79545H59.7482V11.25H58.6864ZM59.2227 4.95384C59.038 4.95384 58.8794 4.89228 58.7468 4.76918C58.6166 4.6437 58.5515 4.49455 58.5515 4.32173C58.5515 4.14654 58.6166 3.9974 58.7468 3.87429C58.8794 3.74882 59.038 3.68608 59.2227 3.68608C59.4073 3.68608 59.5647 3.74882 59.695 3.87429C59.8275 3.9974 59.8938 4.14654 59.8938 4.32173C59.8938 4.49455 59.8275 4.6437 59.695 4.76918C59.5647 4.89228 59.4073 4.95384 59.2227 4.95384ZM63.4743 11.3601C62.9463 11.3601 62.4918 11.2405 62.1106 11.0014C61.7318 10.7599 61.4406 10.4273 61.237 10.0036C61.0334 9.57978 60.9316 9.09446 60.9316 8.54759C60.9316 7.99361 61.0358 7.50473 61.2441 7.08097C61.4525 6.65483 61.746 6.32221 62.1248 6.0831C62.5036 5.84399 62.9499 5.72443 63.4636 5.72443C63.8779 5.72443 64.2472 5.80137 64.5716 5.95526C64.8959 6.10677 65.1575 6.31984 65.3564 6.59446C65.5576 6.86908 65.6771 7.18987 65.715 7.55682H64.6816C64.6248 7.30114 64.4946 7.08097 64.291 6.89631C64.0898 6.71165 63.8199 6.61932 63.4814 6.61932C63.1854 6.61932 62.9262 6.69744 62.7037 6.85369C62.4835 7.00758 62.3118 7.22775 62.1887 7.5142C62.0656 7.7983 62.0041 8.13447 62.0041 8.52273C62.0041 8.92045 62.0645 9.26373 62.1852 9.55256C62.3059 9.84138 62.4764 10.0651 62.6966 10.2237C62.9191 10.3823 63.1807 10.4616 63.4814 10.4616C63.6826 10.4616 63.8649 10.425 64.0282 10.3516C64.194 10.2758 64.3324 10.1681 64.4437 10.0284C64.5574 9.88873 64.6367 9.72064 64.6816 9.52415H65.715C65.6771 9.87689 65.5623 10.1918 65.3706 10.4688C65.1788 10.7457 64.9219 10.9635 64.6 11.1222C64.2804 11.2808 63.9051 11.3601 63.4743 11.3601ZM69.2013 11.3601C68.6639 11.3601 68.2011 11.2453 67.8129 11.0156C67.427 10.7836 67.1287 10.4581 66.918 10.0391C66.7096 9.61766 66.6055 9.12405 66.6055 8.55824C66.6055 7.99953 66.7096 7.5071 66.918 7.08097C67.1287 6.65483 67.4222 6.32221 67.7987 6.0831C68.1774 5.84399 68.6201 5.72443 69.1268 5.72443C69.4345 5.72443 69.7328 5.77533 70.0217 5.87713C70.3105 5.97893 70.5697 6.13873 70.7994 6.35653C71.029 6.57434 71.2101 6.85724 71.3427 7.20526C71.4753 7.5509 71.5415 7.97112 71.5415 8.46591V8.84233H67.2056V8.04688H70.5011C70.5011 7.76752 70.4442 7.52012 70.3306 7.30469C70.217 7.08688 70.0572 6.91525 69.8512 6.78977C69.6476 6.6643 69.4085 6.60156 69.1339 6.60156C68.8356 6.60156 68.5752 6.67495 68.3526 6.82173C68.1325 6.96615 67.962 7.15554 67.8413 7.38991C67.7229 7.62192 67.6637 7.87405 67.6637 8.14631V8.76776C67.6637 9.13234 67.7276 9.44247 67.8555 9.69815C67.9857 9.95384 68.1668 10.1491 68.3988 10.2841C68.6308 10.4167 68.9019 10.483 69.212 10.483C69.4132 10.483 69.5967 10.4545 69.7624 10.3977C69.9281 10.3385 70.0714 10.2509 70.1921 10.1349C70.3129 10.0189 70.4052 9.87571 70.4691 9.70526L71.4741 9.88636C71.3936 10.1823 71.2492 10.4415 71.0408 10.6641C70.8349 10.8842 70.5756 11.0559 70.2631 11.179C69.953 11.2997 69.5991 11.3601 69.2013 11.3601ZM77.408 11.3565C76.9677 11.3565 76.5747 11.2441 76.229 11.0192C75.8858 10.7919 75.6159 10.4687 75.4194 10.0497C75.2253 9.62831 75.1282 9.12287 75.1282 8.53338C75.1282 7.94389 75.2264 7.43963 75.4229 7.0206C75.6218 6.60156 75.8941 6.28078 76.2397 6.05824C76.5853 5.8357 76.9772 5.72443 77.4151 5.72443C77.7537 5.72443 78.0259 5.78125 78.2319 5.89489C78.4402 6.00616 78.6012 6.13636 78.7148 6.28551C78.8308 6.43466 78.9208 6.56605 78.9847 6.67969H79.0487V3.97727H80.1104V11.25H79.0735V10.4013H78.9847C78.9208 10.5173 78.8285 10.6499 78.7077 10.799C78.5894 10.9482 78.426 11.0784 78.2177 11.1896C78.0094 11.3009 77.7395 11.3565 77.408 11.3565ZM77.6424 10.451C77.9478 10.451 78.2058 10.3705 78.4165 10.2095C78.6296 10.0462 78.7906 9.82008 78.8995 9.53125C79.0108 9.24242 79.0664 8.90625 79.0664 8.52273C79.0664 8.14394 79.012 7.8125 78.9031 7.52841C78.7942 7.24432 78.6344 7.02296 78.4237 6.86435C78.2129 6.70573 77.9525 6.62642 77.6424 6.62642C77.3228 6.62642 77.0565 6.70928 76.8434 6.875C76.6303 7.04072 76.4693 7.26681 76.3604 7.55327C76.2539 7.83973 76.2006 8.16288 76.2006 8.52273C76.2006 8.88731 76.2551 9.2152 76.364 9.50639C76.4729 9.79759 76.6339 10.0284 76.8469 10.1989C77.0624 10.367 77.3275 10.451 77.6424 10.451ZM81.6259 11.25V5.79545H82.6877V11.25H81.6259ZM82.1621 4.95384C81.9775 4.95384 81.8188 4.89228 81.6863 4.76918C81.556 4.6437 81.4909 4.49455 81.4909 4.32173C81.4909 4.14654 81.556 3.9974 81.6863 3.87429C81.8188 3.74882 81.9775 3.68608 82.1621 3.68608C82.3468 3.68608 82.5042 3.74882 82.6344 3.87429C82.767 3.9974 82.8333 4.14654 82.8333 4.32173C82.8333 4.49455 82.767 4.6437 82.6344 4.76918C82.5042 4.89228 82.3468 4.95384 82.1621 4.95384ZM88.2035 7.12713L87.2411 7.29759C87.2009 7.17448 87.137 7.05729 87.0494 6.94602C86.9641 6.83475 86.8481 6.74361 86.7013 6.67259C86.5546 6.60156 86.3711 6.56605 86.1509 6.56605C85.8503 6.56605 85.5993 6.63352 85.3981 6.76847C85.1969 6.90104 85.0962 7.07268 85.0962 7.28338C85.0962 7.46567 85.1637 7.61245 85.2987 7.72372C85.4336 7.83499 85.6514 7.92614 85.9521 7.99716L86.8185 8.19602C87.3204 8.31203 87.6945 8.49077 87.9407 8.73224C88.1869 8.97372 88.31 9.28741 88.31 9.6733C88.31 10 88.2153 10.2912 88.0259 10.5469C87.8389 10.8002 87.5773 10.9991 87.2411 11.1435C86.9073 11.2879 86.5202 11.3601 86.0799 11.3601C85.4691 11.3601 84.9708 11.2299 84.5849 10.9695C84.199 10.7067 83.9622 10.3338 83.8746 9.85085L84.9009 9.6946C84.9648 9.96212 85.0962 10.1645 85.2951 10.3018C85.494 10.4368 85.7532 10.5043 86.0728 10.5043C86.4208 10.5043 86.699 10.4321 86.9073 10.2876C87.1156 10.1409 87.2198 9.96212 87.2198 9.75142C87.2198 9.58097 87.1559 9.43774 87.0281 9.32173C86.9026 9.20573 86.7096 9.11813 86.4492 9.05895L85.5259 8.85653C85.0169 8.74053 84.6405 8.55587 84.3967 8.30256C84.1552 8.04924 84.0344 7.72846 84.0344 7.3402C84.0344 7.01823 84.1244 6.73651 84.3043 6.49503C84.4843 6.25355 84.7328 6.06534 85.0501 5.9304C85.3673 5.79309 85.7307 5.72443 86.1403 5.72443C86.7298 5.72443 87.1938 5.85227 87.5323 6.10795C87.8709 6.36127 88.0946 6.70099 88.2035 7.12713ZM89.4775 13.2955V5.79545H90.5144V6.67969H90.6032C90.6647 6.56605 90.7535 6.43466 90.8695 6.28551C90.9855 6.13636 91.1465 6.00616 91.3525 5.89489C91.5584 5.78125 91.8307 5.72443 92.1692 5.72443C92.6096 5.72443 93.0025 5.8357 93.3482 6.05824C93.6938 6.28078 93.9649 6.60156 94.1614 7.0206C94.3603 7.43963 94.4597 7.94389 94.4597 8.53338C94.4597 9.12287 94.3614 9.62831 94.165 10.0497C93.9685 10.4687 93.6986 10.7919 93.3553 11.0192C93.012 11.2441 92.6202 11.3565 92.1799 11.3565C91.8484 11.3565 91.5774 11.3009 91.3667 11.1896C91.1583 11.0784 90.995 10.9482 90.8766 10.799C90.7582 10.6499 90.6671 10.5173 90.6032 10.4013H90.5392V13.2955H89.4775ZM90.5179 8.52273C90.5179 8.90625 90.5736 9.24242 90.6848 9.53125C90.7961 9.82008 90.9571 10.0462 91.1678 10.2095C91.3785 10.3705 91.6365 10.451 91.9419 10.451C92.2592 10.451 92.5243 10.367 92.7374 10.1989C92.9505 10.0284 93.1114 9.79759 93.2203 9.50639C93.3316 9.2152 93.3873 8.88731 93.3873 8.52273C93.3873 8.16288 93.3328 7.83973 93.2239 7.55327C93.1174 7.26681 92.9564 7.04072 92.7409 6.875C92.5279 6.70928 92.2615 6.62642 91.9419 6.62642C91.6342 6.62642 91.3738 6.70573 91.1607 6.86435C90.95 7.02296 90.7902 7.24432 90.6813 7.52841C90.5724 7.8125 90.5179 8.14394 90.5179 8.52273ZM97.9469 11.3601C97.4355 11.3601 96.9893 11.2429 96.6081 11.0085C96.227 10.7741 95.931 10.4463 95.7203 10.0249C95.5096 9.60346 95.4043 9.11103 95.4043 8.54759C95.4043 7.98177 95.5096 7.48698 95.7203 7.06321C95.931 6.63944 96.227 6.31037 96.6081 6.07599C96.9893 5.84162 97.4355 5.72443 97.9469 5.72443C98.4583 5.72443 98.9045 5.84162 99.2857 6.07599C99.6668 6.31037 99.9628 6.63944 100.173 7.06321C100.384 7.48698 100.49 7.98177 100.49 8.54759C100.49 9.11103 100.384 9.60346 100.173 10.0249C99.9628 10.4463 99.6668 10.7741 99.2857 11.0085C98.9045 11.2429 98.4583 11.3601 97.9469 11.3601ZM97.9505 10.4688C98.2819 10.4688 98.5565 10.3812 98.7743 10.206C98.9921 10.0308 99.1531 9.79759 99.2573 9.50639C99.3638 9.2152 99.4171 8.89441 99.4171 8.54403C99.4171 8.19602 99.3638 7.87642 99.2573 7.58523C99.1531 7.29167 98.9921 7.05611 98.7743 6.87855C98.5565 6.70099 98.2819 6.61222 97.9505 6.61222C97.6167 6.61222 97.3397 6.70099 97.1195 6.87855C96.9017 7.05611 96.7395 7.29167 96.633 7.58523C96.5288 7.87642 96.4767 8.19602 96.4767 8.54403C96.4767 8.89441 96.5288 9.2152 96.633 9.50639C96.7395 9.79759 96.9017 10.0308 97.1195 10.206C97.3397 10.3812 97.6167 10.4688 97.9505 10.4688ZM102.737 8.01136V11.25H101.675V5.79545H102.694V6.68324H102.761C102.887 6.39441 103.083 6.16241 103.351 5.98722C103.621 5.81203 103.96 5.72443 104.37 5.72443C104.742 5.72443 105.067 5.80256 105.347 5.95881C105.626 6.11269 105.843 6.34233 105.996 6.64773C106.15 6.95312 106.227 7.33073 106.227 7.78054V11.25H105.165V7.90838C105.165 7.51302 105.063 7.20407 104.857 6.98153C104.651 6.75663 104.368 6.64418 104.008 6.64418C103.762 6.64418 103.543 6.69744 103.351 6.80398C103.161 6.91051 103.011 7.06676 102.9 7.27273C102.791 7.47633 102.737 7.72254 102.737 8.01136ZM107.651 11.25V5.79545H108.713V11.25H107.651ZM108.188 4.95384C108.003 4.95384 107.844 4.89228 107.712 4.76918C107.581 4.6437 107.516 4.49455 107.516 4.32173C107.516 4.14654 107.581 3.9974 107.712 3.87429C107.844 3.74882 108.003 3.68608 108.188 3.68608C108.372 3.68608 108.53 3.74882 108.66 3.87429C108.792 3.9974 108.859 4.14654 108.859 4.32173C108.859 4.49455 108.792 4.6437 108.66 4.76918C108.53 4.89228 108.372 4.95384 108.188 4.95384ZM110.227 11.25V3.97727H111.289V6.67969H111.352C111.414 6.56605 111.503 6.43466 111.619 6.28551C111.735 6.13636 111.896 6.00616 112.102 5.89489C112.308 5.78125 112.58 5.72443 112.919 5.72443C113.359 5.72443 113.752 5.8357 114.097 6.05824C114.443 6.28078 114.714 6.60156 114.911 7.0206C115.11 7.43963 115.209 7.94389 115.209 8.53338C115.209 9.12287 115.111 9.62831 114.914 10.0497C114.718 10.4687 114.448 10.7919 114.105 11.0192C113.761 11.2441 113.369 11.3565 112.929 11.3565C112.598 11.3565 112.327 11.3009 112.116 11.1896C111.908 11.0784 111.744 10.9482 111.626 10.799C111.508 10.6499 111.416 10.5173 111.352 10.4013H111.264V11.25H110.227ZM111.267 8.52273C111.267 8.90625 111.323 9.24242 111.434 9.53125C111.545 9.82008 111.706 10.0462 111.917 10.2095C112.128 10.3705 112.386 10.451 112.691 10.451C113.008 10.451 113.274 10.367 113.487 10.1989C113.7 10.0284 113.861 9.79759 113.97 9.50639C114.081 9.2152 114.137 8.88731 114.137 8.52273C114.137 8.16288 114.082 7.83973 113.973 7.55327C113.867 7.26681 113.706 7.04072 113.49 6.875C113.277 6.70928 113.011 6.62642 112.691 6.62642C112.383 6.62642 112.123 6.70573 111.91 6.86435C111.699 7.02296 111.539 7.24432 111.431 7.52841C111.322 7.8125 111.267 8.14394 111.267 8.52273ZM117.463 3.97727V11.25H116.401V3.97727H117.463ZM121.242 11.3601C120.705 11.3601 120.242 11.2453 119.854 11.0156C119.468 10.7836 119.17 10.4581 118.959 10.0391C118.751 9.61766 118.646 9.12405 118.646 8.55824C118.646 7.99953 118.751 7.5071 118.959 7.08097C119.17 6.65483 119.463 6.32221 119.84 6.0831C120.218 5.84399 120.661 5.72443 121.168 5.72443C121.476 5.72443 121.774 5.77533 122.063 5.87713C122.352 5.97893 122.611 6.13873 122.84 6.35653C123.07 6.57434 123.251 6.85724 123.384 7.20526C123.516 7.5509 123.583 7.97112 123.583 8.46591V8.84233H119.247V8.04688H122.542C122.542 7.76752 122.485 7.52012 122.372 7.30469C122.258 7.08688 122.098 6.91525 121.892 6.78977C121.689 6.6643 121.45 6.60156 121.175 6.60156C120.877 6.60156 120.616 6.67495 120.394 6.82173C120.173 6.96615 120.003 7.15554 119.882 7.38991C119.764 7.62192 119.705 7.87405 119.705 8.14631V8.76776C119.705 9.13234 119.769 9.44247 119.896 9.69815C120.027 9.95384 120.208 10.1491 120.44 10.2841C120.672 10.4167 120.943 10.483 121.253 10.483C121.454 10.483 121.638 10.4545 121.803 10.3977C121.969 10.3385 122.112 10.2509 122.233 10.1349C122.354 10.0189 122.446 9.87571 122.51 9.70526L123.515 9.88636C123.435 10.1823 123.29 10.4415 123.082 10.6641C122.876 10.8842 122.617 11.0559 122.304 11.179C121.994 11.2997 121.64 11.3601 121.242 11.3601Z" fill="#C4C4C4"/>
<path d="M14.353 5.75C18.054 6.161 20.978 9.081 21.393 12.782" stroke="#3C88C3" stroke-width="1.5" stroke-linecap="round" stroke-linejoin="round"/>
<path d="M14.353 9.29297C16.124 9.63697 17.508 11.022 17.853 12.793" stroke="#3C88C3" stroke-width="1.5" stroke-linecap="round" stroke-linejoin="round"/>
<path fill-rule="evenodd" clip-rule="evenodd" d="M11.0315 15.7224C15.0205 19.7104 15.9254 15.0967 18.4653 17.6348C20.9138 20.0828 22.3222 20.5732 19.2188 23.6747C18.8302 23.987 16.3613 27.7443 7.68447 19.0697C-0.993406 10.394 2.76157 7.92244 3.07394 7.53395C6.18377 4.42385 6.66682 5.83938 9.11539 8.28733C11.6541 10.8265 7.04254 11.7344 11.0315 15.7224Z" stroke="#3C88C3" stroke-width="1.5" stroke-linecap="round" stroke-linejoin="round"/>
</svg>
